<?xml version="1.0" encoding="utf-8"?>
<!-- Generator: Adobe Illustrator 27.5.0, SVG Export Plug-In . SVG Version: 6.00 Build 0)  -->
<svg version="1.1" xmlns="http://www.w3.org/2000/svg" xmlns:xlink="http://www.w3.org/1999/xlink" x="0px" y="0px"
	 viewBox="0 0 600 500" style="enable-background:new 0 0 600 500;" xml:space="preserve">
<g id="BACKGROUND">
	<rect style="fill:#FFFFFF;" width="600" height="500"/>
</g>
<g id="OBJECTS">
	<g>
		<path style="fill:#E7F3F5;" d="M75.141,439V292.934c0-67.981,55.11-123.091,123.091-123.091h107.196V95.164
			c0-18.868,15.296-34.164,34.164-34.164h86.517c54.538,0,98.749,44.211,98.749,98.749V439H75.141z"/>
		<g>
			
				<line style="fill:none;stroke:#BEDCE0;stroke-width:2;stroke-miterlimit:10;" x1="96.235" y1="342.214" x2="96.235" y2="438.401"/>
			
				<line style="fill:none;stroke:#BEDCE0;stroke-width:2;stroke-miterlimit:10;" x1="164.156" y1="366.887" x2="164.156" y2="438.401"/>
			
				<line style="fill:none;stroke:#BEDCE0;stroke-width:2;stroke-miterlimit:10;" x1="232.078" y1="294.291" x2="232.078" y2="438.401"/>
			<line style="fill:none;stroke:#BEDCE0;stroke-width:2;stroke-miterlimit:10;" x1="300" y1="266.089" x2="300" y2="438.401"/>
			
				<line style="fill:none;stroke:#BEDCE0;stroke-width:2;stroke-miterlimit:10;" x1="367.922" y1="294.291" x2="367.922" y2="438.401"/>
			
				<line style="fill:none;stroke:#BEDCE0;stroke-width:2;stroke-miterlimit:10;" x1="435.844" y1="208.318" x2="435.844" y2="438.401"/>
			
				<line style="fill:none;stroke:#BEDCE0;stroke-width:2;stroke-miterlimit:10;" x1="130.196" y1="360.308" x2="130.196" y2="438.401"/>
			
				<line style="fill:none;stroke:#BEDCE0;stroke-width:2;stroke-miterlimit:10;" x1="198.117" y1="330.776" x2="198.117" y2="438.401"/>
			
				<line style="fill:none;stroke:#BEDCE0;stroke-width:2;stroke-miterlimit:10;" x1="266.039" y1="290.745" x2="266.039" y2="438.401"/>
			
				<line style="fill:none;stroke:#BEDCE0;stroke-width:2;stroke-miterlimit:10;" x1="333.961" y1="282.214" x2="333.961" y2="438.401"/>
			
				<line style="fill:none;stroke:#BEDCE0;stroke-width:2;stroke-miterlimit:10;" x1="401.883" y1="243.776" x2="401.883" y2="438.401"/>
			
				<line style="fill:none;stroke:#BEDCE0;stroke-width:2;stroke-miterlimit:10;" x1="469.804" y1="212.277" x2="469.804" y2="438.401"/>
			
				<line style="fill:none;stroke:#BEDCE0;stroke-width:2;stroke-miterlimit:10;" x1="503.765" y1="135.777" x2="503.765" y2="438.401"/>
			<path style="fill:none;stroke:#BEDCE0;stroke-width:2;stroke-miterlimit:10;" d="M96.235,342.214
				c0,0,24.893,14.882,33.961,18.094c8.152,2.888,25.731,9.237,33.961,6.579c11.793-3.808,26.601-26.14,33.961-36.11
				c8.789-11.906,22.81-30.924,33.961-36.485c7.639-3.81,25.99-0.491,33.961-3.546c9.797-3.755,23.521-23.613,33.961-24.656
				c9.352-0.935,25.655,11.727,33.961,16.125c7.964,4.216,25.405,14.905,33.961,12.077c14.449-4.775,28.649-36.254,33.961-50.515
				c6.914-18.562,21.916-33.094,33.961-35.458c13.266-2.604,26.537,8.194,33.961,3.958c18.175-10.37,28.181-56.389,33.961-76.5"/>
			<g>
				<path style="fill:#4A75C9;" d="M99.704,342.214c0,1.916-1.553,3.469-3.469,3.469s-3.469-1.553-3.469-3.469
					c0-1.916,1.553-3.469,3.469-3.469S99.704,340.298,99.704,342.214z"/>
				<path style="fill:#D68D8D;" d="M133.664,360.308c0,1.916-1.553,3.469-3.469,3.469c-1.916,0-3.469-1.553-3.469-3.469
					c0-1.916,1.553-3.469,3.469-3.469C132.111,356.839,133.664,358.392,133.664,360.308z"/>
				<path style="fill:#D68D8D;" d="M167.625,366.887c0,1.916-1.553,3.469-3.469,3.469c-1.916,0-3.469-1.553-3.469-3.469
					c0-1.916,1.553-3.469,3.469-3.469C166.072,363.418,167.625,364.971,167.625,366.887z"/>
				<path style="fill:#4A75C9;" d="M201.586,330.776c0,1.916-1.553,3.469-3.469,3.469s-3.469-1.553-3.469-3.469
					c0-1.916,1.553-3.469,3.469-3.469S201.586,328.861,201.586,330.776z"/>
				<path style="fill:#4A75C9;" d="M235.547,294.291c0,1.916-1.553,3.469-3.469,3.469c-1.916,0-3.469-1.553-3.469-3.469
					c0-1.916,1.553-3.469,3.469-3.469C233.994,290.823,235.547,292.375,235.547,294.291z"/>
				<path style="fill:#4A75C9;" d="M269.508,290.823c0,1.916-1.553,3.469-3.469,3.469c-1.916,0-3.469-1.553-3.469-3.469
					c0-1.916,1.553-3.469,3.469-3.469C267.955,287.354,269.508,288.907,269.508,290.823z"/>
				<path style="fill:#4A75C9;" d="M303.469,266.089c0,1.916-1.553,3.469-3.469,3.469c-1.916,0-3.469-1.553-3.469-3.469
					c0-1.916,1.553-3.469,3.469-3.469C301.916,262.62,303.469,264.173,303.469,266.089z"/>
				<path style="fill:#D68D8D;" d="M337.43,282.214c0,1.916-1.553,3.469-3.469,3.469c-1.916,0-3.469-1.553-3.469-3.469
					c0-1.916,1.553-3.469,3.469-3.469C335.877,278.745,337.43,280.298,337.43,282.214z"/>
				<path style="fill:#D68D8D;" d="M371.391,294.291c0,1.916-1.553,3.469-3.469,3.469c-1.916,0-3.469-1.553-3.469-3.469
					c0-1.916,1.553-3.469,3.469-3.469C369.837,290.823,371.391,292.375,371.391,294.291z"/>
				<path style="fill:#4A75C9;" d="M405.351,243.776c0,1.916-1.553,3.469-3.469,3.469c-1.916,0-3.469-1.553-3.469-3.469
					c0-1.916,1.553-3.469,3.469-3.469C403.798,240.308,405.351,241.861,405.351,243.776z"/>
				<path style="fill:#4A75C9;" d="M439.312,208.318c0,1.916-1.553,3.469-3.469,3.469c-1.916,0-3.469-1.553-3.469-3.469
					c0-1.916,1.553-3.469,3.469-3.469C437.759,204.85,439.312,206.402,439.312,208.318z"/>
				<path style="fill:#D68D8D;" d="M473.273,212.277c0,1.916-1.553,3.469-3.469,3.469c-1.916,0-3.469-1.553-3.469-3.469
					c0-1.916,1.553-3.469,3.469-3.469C471.72,208.808,473.273,210.361,473.273,212.277z"/>
				<path style="fill:#4A75C9;" d="M507.234,135.777c0,1.916-1.553,3.469-3.469,3.469c-1.916,0-3.469-1.553-3.469-3.469
					c0-1.916,1.553-3.469,3.469-3.469C505.681,132.308,507.234,133.861,507.234,135.777z"/>
			</g>
		</g>
		<g>
			<polygon style="fill:#6E4C2E;" points="242.678,438.401 316.719,438.401 312.016,385.658 247.382,385.658 			"/>
			
				<ellipse style="fill:none;stroke:#28364F;stroke-width:1.131;stroke-miterlimit:10;" cx="279.699" cy="388.258" rx="11.372" ry="10.531"/>
			<g>
				<g>
					<polygon style="fill:none;stroke:#D9956A;stroke-width:0.3948;stroke-miterlimit:10;" points="298.721,426.997 
						303.295,426.997 301.008,396.628 296.433,396.628 					"/>
					<polygon style="fill:#FFFFFF;" points="297.124,420.988 303.986,420.988 303.577,415.561 296.716,415.561 					"/>
				</g>
				<g>
					<polygon style="fill:none;stroke:#D9956A;stroke-width:0.3948;stroke-miterlimit:10;" points="260.676,426.997 
						256.101,426.997 258.388,396.628 262.963,396.628 					"/>
					<polygon style="fill:#FFFFFF;" points="262.272,420.988 255.41,420.988 255.819,415.561 262.68,415.561 					"/>
				</g>
			</g>
			<polygon style="fill:#6E4C2E;" points="279.613,414.799 246.693,393.375 247.382,385.658 312.016,385.658 312.703,393.359 			"/>
			<path style="fill:none;stroke:#FFFFFF;stroke-width:0.4518;stroke-miterlimit:10;" d="M310.856,394.555l-25.97,16.827
				c-3.207,2.078-7.336,2.074-10.539-0.011L248.96,394.85"/>
			<circle style="fill:none;stroke:#FFFFFF;stroke-width:0.4518;stroke-miterlimit:10;" cx="279.698" cy="407.09" r="3.261"/>
		</g>
		<g>
			<polygon style="fill:#28364F;" points="131.728,357.437 125.199,357.437 107.309,265.749 113.838,265.749 			"/>
			<polygon style="fill:#28364F;" points="175.993,357.437 169.463,357.437 151.573,265.749 158.103,265.749 			"/>
			<path style="fill:#6E4C2E;" d="M112.249,315.531l-9.015-46.205c-0.55-2.821,1.61-5.444,4.484-5.444h50.418
				c2.186,0,4.066,1.548,4.484,3.694l9.016,46.205c0.55,2.821-1.61,5.444-4.484,5.444h-50.419
				C114.548,319.225,112.668,317.677,112.249,315.531z"/>
			<path style="fill:none;stroke:#FFFFFF;stroke-width:0.5;stroke-miterlimit:10;" d="M117.741,316.937
				c-0.247-0.428-0.433-0.898-0.532-1.405l-9.015-46.205c-0.222-1.138,0.003-2.241,0.532-3.155"/>
			<polygon style="fill:#28364F;" points="136.4,361.878 144.508,361.878 123.211,430.874 207.797,430.874 186.5,361.878 
				194.607,361.878 218.228,438.401 112.78,438.401 			"/>
			<path style="fill:#6E4C2E;" d="M126.629,364.397h77.749c3.939,0,7.133-3.194,7.133-7.133v-1.194c0-1.783-1.445-3.228-3.228-3.228
				h-85.56c-1.783,0-3.228,1.445-3.228,3.228v1.194C119.496,361.204,122.69,364.397,126.629,364.397z"/>
		</g>
		<g>
			<path style="fill:#422424;" d="M252.639,404.405l-0.01,13.239c-0.001,2.061,1.1,3.965,2.886,4.992l21.13,12.143
				c1.723,0.99,1.02,3.623-0.967,3.623h-32.561c-1.872,0-3.341-1.604-3.177-3.469l0.777-8.834l-7.579-21.693H252.639z"/>
			<path style="fill:#1B2536;" d="M275.679,438.401h-32.561c-1.872,0-3.341-1.604-3.177-3.469l0.528-5.997
				c8.27,0.777,10.095-5.14,14.108-6.989c0.289,0.256,0.597,0.493,0.939,0.69l21.13,12.143
				C278.368,435.769,277.666,438.401,275.679,438.401z"/>
			<path style="fill:#DE6767;" d="M242.584,410.272l4.11,11.873c0.729,2.106,2.257,3.841,4.253,4.832l18.643,9.244
				c1.089,0.54,0.705,2.18-0.511,2.18h-34.924c-1.872,0-3.341-1.604-3.177-3.469l0.777-8.834l-8.08-15.826H242.584z"/>
			<path style="fill:#28364F;" d="M269.08,438.401h-34.924c-1.872,0-3.341-1.604-3.177-3.469l0.777-8.834
				c10.389,4.125,8.805-2.324,15.152-3.423c0.79,1.865,2.215,3.396,4.04,4.301l18.643,9.244
				C270.679,436.761,270.295,438.401,269.08,438.401z"/>
			<path style="fill:#28364F;" d="M257.561,350.105c-0.516-11.137-5.953-23.7-30.703-23.7c-10.65,0-22.198,0-31.904,0l-4.308-9.469
				l-23.021,1.031l4.858,8.438l61.594,80.953h25.102C259.178,407.358,258.234,364.634,257.561,350.105z"/>
			<path style="fill:#1B2536;" d="M207.733,335.148h8.532c7.21,0,13.488,4.924,15.205,11.927l14.781,60.283h-8.386L207.733,335.148z
				"/>
			
				<line style="fill:none;stroke:#1B2536;stroke-width:0.5;stroke-miterlimit:10;" x1="257.561" y1="401.968" x2="231.733" y2="401.968"/>
			
				<line style="fill:none;stroke:#1B2536;stroke-width:0.5;stroke-miterlimit:10;" x1="232.858" y1="335.148" x2="218.796" y2="348.718"/>
			
				<line style="fill:none;stroke:#1B2536;stroke-width:0.5;stroke-miterlimit:10;" x1="239.625" y1="343.093" x2="225.827" y2="345.905"/>
			<path style="fill:#496163;" d="M134.983,316.515l-1.313,8.203c-4.5,15.75-3.691,28.088,25.125,32.437
				c19.875,3,36.188,5.25,36.188,5.25s2.686,5.534,5.625,9.234c3.797,4.781,1.406,8.156,3.938,12.797
				c2.531,4.641,6.891,7.313,8.297,12.938c1.406,5.625,2.531,10.828,5.906,14.906h26.297l-25.676-70.578
				c-2.737-7.524-9.888-12.532-17.894-12.532h-21.962l-0.141-12.656H134.983z"/>
			
				<line style="fill:none;stroke:#1B2536;stroke-width:0.5;stroke-miterlimit:10;" x1="241.952" y1="407.358" x2="217.905" y2="407.358"/>
			<path style="fill:none;stroke:#1B2536;stroke-width:0.5;stroke-miterlimit:10;" d="M194.561,345.905c0,0-4.083,7.126,0,15.047"/>
			
				<line style="fill:none;stroke:#1B2536;stroke-width:0.5;stroke-miterlimit:10;" x1="186.124" y1="347.874" x2="191.889" y2="359.265"/>
			<polygon style="fill:#28364F;" points="134.013,322.579 134.983,316.515 179.374,316.515 179.492,327.143 			"/>
			<path style="fill:none;stroke:#1B2536;stroke-width:0.5;stroke-miterlimit:10;" d="M152.983,318.718l1.328,10.401
				c0.546,4.274,3.863,7.667,8.124,8.308l34.154,5.142c2.926,0.441,5.398,2.401,6.493,5.149l23.776,59.64"/>
			
				<line style="fill:none;stroke:#1B2536;stroke-width:0.5;stroke-miterlimit:10;" x1="165.874" y1="331.28" x2="146.046" y2="339.015"/>
			
				<line style="fill:none;stroke:#1B2536;stroke-width:0.5;stroke-miterlimit:10;" x1="158.14" y1="330.718" x2="137.749" y2="332.546"/>
			<path style="fill:#28364F;" d="M182.361,233.845c0,0-2.987-7.986-4.112-11.127c-1.125-3.141-0.234-7.219,5.344-6.609
				c2.297-5.344,8.109-3.281,8.109-3.281c2.813-3.047,9.119-2.297,11.028,0.563c4.347-1.828,8.519,2.156,7.206,6.234
				c-1.313,4.078-6,3.188-7.922,1.125C202.014,220.749,187.503,233.441,182.361,233.845z"/>
			<g>
				<path style="fill:#D68D8D;" d="M228.546,270.437l5.503-21.425c0,0-0.745-15.185,0.661-15.607
					c1.406-0.422,2.531,7.172,2.531,7.172s5.203-1.617,8.297-1.828l5.695-1.617c0,0,3.867-2.531,4.781-1.758
					c0.914,0.773-1.336,2.953-1.336,2.953s2.25-1.336,2.742-0.563c0.492,0.774-4.031,3.832-7.828,5.379
					c4.852,0.211,9.586,0.035,9.586,0.738c0,0.703-4.711,1.617-8.297,1.617c0,0,6.68,1.758,6.328,2.602
					c-0.352,0.844-8.057-0.352-8.057-0.352s-1.922,2.298-7.688,3.9l3.721,29.624L228.546,270.437z"/>
				<path style="fill:none;stroke:#422424;stroke-width:0.5;stroke-miterlimit:10;" d="M253.577,238.749
					c0,0-2.074,0.964-6.437,2.798"/>
				
					<line style="fill:none;stroke:#422424;stroke-width:0.5;stroke-miterlimit:10;" x1="246.639" y1="239.898" x2="248.608" y2="246.39"/>
				<path style="fill:none;stroke:#422424;stroke-width:0.5;stroke-miterlimit:10;" d="M246.639,244.656c0,0-7.969-3.703-9,3.938"/>
				<polygon style="fill:#28364F;" points="244.21,273.503 228.857,269.226 228.546,270.437 245.186,281.274 				"/>
			</g>
			<path style="fill:#D4B5A5;" d="M213.87,260.548l12.144,20.413l2.531-10.523l20.812,9.281l-7.312,29.906h-22.125l-19.407-22.078
				l2.217-35.022l3.942,1.701C209.678,255.522,212.197,257.734,213.87,260.548z"/>
			<polygon style="fill:#28364F;" points="209.05,263.508 210.616,299.039 200.514,287.546 			"/>
			
				<line style="fill:none;stroke:#1B2536;stroke-width:0.5;stroke-miterlimit:10;" x1="226.014" y1="280.96" x2="223.811" y2="290.78"/>
			
				<line style="fill:none;stroke:#1B2536;stroke-width:0.5;stroke-miterlimit:10;" x1="223.811" y1="282.202" x2="213.077" y2="292.187"/>
			<polygon style="fill:#E8D1C5;" points="247.789,286.135 227.304,275.6 228.546,270.437 249.358,279.718 			"/>
			
				<line style="fill:none;stroke:#1B2536;stroke-width:0.5;stroke-miterlimit:10;" x1="229.202" y1="279.53" x2="234.077" y2="287.968"/>
			<path style="fill:#D4B5A5;" d="M199.202,251.124v-2.813l-13.5-6.75l-8.859-0.984l-3.375,3.375l-7.872,4.229
				c-6.158,3.308-11.1,8.482-14.109,14.791c-4.702,9.861-11.976,26.417-18.379,46.511c0,0-3.938,3.234-3.938,6.984
				s2.25,4.875,10.313,4.875c8.062,0,51.75,0,51.75,0l17.9-58.104c1.228-3.985-0.763-8.252-4.606-9.871L199.202,251.124z"/>
			<polyline style="fill:none;stroke:#1B2536;stroke-width:0.5;stroke-miterlimit:10;" points="184.858,249.367 181.343,253.796 
				173.889,245.64 			"/>
			<polyline style="fill:none;stroke:#1B2536;stroke-width:0.5;stroke-miterlimit:10;" points="199.202,251.827 199.202,255.273 
				194.744,251.781 			"/>
			
				<line style="fill:none;stroke:#1B2536;stroke-width:0.5;stroke-miterlimit:10;" x1="151.39" y1="287.546" x2="172.483" y2="295.562"/>
			
				<line style="fill:none;stroke:#1B2536;stroke-width:0.5;stroke-miterlimit:10;" x1="142.249" y1="310.608" x2="159.546" y2="316.515"/>
			<polygon style="fill:#28364F;" points="201.313,288.624 183.311,264.343 196.795,303.291 			"/>
			
				<line style="fill:none;stroke:#1B2536;stroke-width:0.5;stroke-miterlimit:10;" x1="187.53" y1="257.874" x2="183.311" y2="282.202"/>
			<g>
				<path style="fill:#D68D8D;" d="M217.061,299.039l17.016,3.343l10.447-1.522c2.234-0.326,4.493,0.41,6.107,1.988l6.93,6.776
					h-39.594L217.061,299.039z"/>
				
					<line style="fill:none;stroke:#422424;stroke-width:0.5;stroke-miterlimit:10;" x1="247.296" y1="303.859" x2="252.85" y2="309.624"/>
				
					<line style="fill:none;stroke:#422424;stroke-width:0.5;stroke-miterlimit:10;" x1="243.474" y1="303.859" x2="249.029" y2="309.624"/>
				
					<line style="fill:none;stroke:#422424;stroke-width:0.5;stroke-miterlimit:10;" x1="240.574" y1="304.815" x2="245.207" y2="309.624"/>
				
					<line style="fill:none;stroke:#422424;stroke-width:0.5;stroke-miterlimit:10;" x1="237.865" y1="305.971" x2="241.385" y2="309.624"/>
				<polygon style="fill:#28364F;" points="220.836,300.42 228.241,309.624 217.967,309.624 				"/>
			</g>
			<path style="fill:#D68D8D;" d="M194.561,242.335l-1.055,6.785l-5.273,6.785l-1.195-7.945l-8.789-5.625l5.414-11.18
				c0,0,2.742-0.984,2.742-9.422c0,0,5.766,0.352,6.961-3.375c3.234,2.672,6.398,3.516,8.648,2.391c0,0,0.563,6.117,0,10.477
				C203.983,236.499,202.014,243.038,194.561,242.335z"/>
			
				<line style="fill:none;stroke:#1B2536;stroke-width:0.5;stroke-miterlimit:10;" x1="198.264" y1="248.827" x2="189.452" y2="256.22"/>
			<path style="fill:none;stroke:#422424;stroke-width:0.5;stroke-miterlimit:10;" d="M193.858,242.054c0,0-4.289-0.211-7.945-3.656
				"/>
			<polyline style="fill:none;stroke:#422424;stroke-width:0.5;stroke-miterlimit:10;" points="196.249,228.062 197.468,233.218 
				194.796,232.843 			"/>
			<path style="fill:none;stroke:#422424;stroke-width:0.5;stroke-miterlimit:10;" d="M196.718,236.077c0,0-2.972,0.763-6.228-1.734
				"/>
			
				<line style="fill:none;stroke:#422424;stroke-width:0.5;stroke-miterlimit:10;" x1="191.28" y1="233.546" x2="189.886" y2="234.952"/>
			<g>
				<path style="fill:none;stroke:#28364F;stroke-width:0.5;stroke-miterlimit:10;" d="M197.186,228.999
					c0,2.201,1.553,3.984,3.469,3.984c1.916,0,3.469-1.784,3.469-3.984s-1.553-3.984-3.469-3.984
					C198.739,225.015,197.186,226.799,197.186,228.999z"/>
				<path style="fill:none;stroke:#28364F;stroke-width:0.5;stroke-miterlimit:10;" d="M188.582,228.999
					c0,2.201,1.553,3.984,3.469,3.984c1.916,0,3.469-1.784,3.469-3.984s-1.553-3.984-3.469-3.984
					C190.135,225.015,188.582,226.799,188.582,228.999z"/>
				
					<line style="fill:none;stroke:#28364F;stroke-width:0.5;stroke-miterlimit:10;" x1="197.285" y1="228.062" x2="195.419" y2="228.062"/>
				
					<line style="fill:none;stroke:#28364F;stroke-width:0.5;stroke-miterlimit:10;" x1="188.681" y1="228.062" x2="183.982" y2="228.062"/>
			</g>
			<path style="fill:none;stroke:#28364F;stroke-width:2;stroke-linecap:round;stroke-linejoin:round;stroke-miterlimit:10;" d="
				M194.245,223.702c0,0-2.426-1.582-5.309-0.211"/>
			<path style="fill:none;stroke:#28364F;stroke-width:2;stroke-linecap:round;stroke-linejoin:round;stroke-miterlimit:10;" d="
				M197.793,224.272c0,0,1.373-1.234,3.342-0.954"/>
			<path style="fill:#28364F;" d="M199.378,228.941l-0.766,0.373c-0.088-0.178-0.148-0.372-0.148-0.584
				c0-0.738,0.598-1.336,1.336-1.336c0.738,0,1.336,0.598,1.336,1.336c0,0.738-0.598,1.336-1.336,1.336
				c-0.274,0-0.515-0.103-0.727-0.244L199.378,228.941z"/>
			<path style="fill:#28364F;" d="M191.846,228.941l-0.766,0.373c-0.088-0.178-0.148-0.372-0.148-0.584
				c0-0.738,0.598-1.336,1.336-1.336c0.738,0,1.336,0.598,1.336,1.336c0,0.738-0.598,1.336-1.336,1.336
				c-0.274,0-0.515-0.103-0.727-0.244L191.846,228.941z"/>
			<path style="fill:#D4B5A5;" d="M163.202,252.249c-10.202,4.946-6.609,20.812-0.984,30.797
				c5.625,9.984,15.188,26.578,15.188,26.578h46.406l-4.5-13.922l-23.484-4.922c0,0-8.859-18.703-12.516-26.438
				C179.655,256.609,172.483,247.749,163.202,252.249z"/>
			<polygon style="fill:#E8D1C5;" points="212.124,294.196 219.311,295.702 223.811,309.624 215.335,309.624 			"/>
			
				<line style="fill:none;stroke:#1B2536;stroke-width:0.5;stroke-miterlimit:10;" x1="211.296" y1="294.022" x2="185.514" y2="288.624"/>
			<path style="fill:none;stroke:#1B2536;stroke-width:0.5;stroke-miterlimit:10;" d="M183.311,264.343
				c-3.656-7.734-10.828-16.594-20.109-12.094c-10.202,4.946-6.609,20.812-0.984,30.797c4.191,7.439,10.568,18.548,13.547,23.728"/>
			<g>
				<path style="fill:#D68D8D;" d="M179.844,232.034c0.849,2.149,3.045,3.296,4.905,2.561c1.86-0.735,2.68-3.072,1.831-5.221
					c-0.849-2.149-3.045-3.295-4.905-2.561C179.814,227.547,178.995,229.885,179.844,232.034z"/>
				<path style="fill:none;stroke:#422424;stroke-width:0.5;stroke-miterlimit:10;" d="M185.28,231.894c0,0-0.563-4.148-4.219-3.164
					"/>
				
					<line style="fill:none;stroke:#422424;stroke-width:0.5;stroke-miterlimit:10;" x1="182.503" y1="231.226" x2="183.822" y2="229.148"/>
			</g>
		</g>
		<g>
			<polygon style="fill:#28364F;" points="448.805,357.437 455.335,357.437 473.225,265.749 466.695,265.749 			"/>
			<polygon style="fill:#28364F;" points="404.54,357.437 411.07,357.437 428.96,265.749 422.43,265.749 			"/>
			<path style="fill:#6E4C2E;" d="M468.284,315.531l9.015-46.205c0.551-2.821-1.61-5.444-4.484-5.444h-50.418
				c-2.186,0-4.066,1.548-4.484,3.694l-9.016,46.205c-0.551,2.821,1.61,5.444,4.484,5.444h50.419
				C465.986,319.225,467.865,317.677,468.284,315.531z"/>
			<path style="fill:none;stroke:#FFFFFF;stroke-width:0.5;stroke-miterlimit:10;" d="M462.793,316.937
				c0.247-0.428,0.433-0.898,0.532-1.405l9.015-46.205c0.222-1.138-0.003-2.241-0.532-3.155"/>
			<polygon style="fill:#28364F;" points="444.133,361.878 436.026,361.878 457.323,430.874 372.736,430.874 394.033,361.878 
				385.926,361.878 362.306,438.401 467.753,438.401 			"/>
			<path style="fill:#6E4C2E;" d="M453.904,364.397h-77.749c-3.939,0-7.133-3.194-7.133-7.133v-1.194
				c0-1.783,1.445-3.228,3.228-3.228h85.56c1.783,0,3.228,1.445,3.228,3.228v1.194C461.037,361.204,457.844,364.397,453.904,364.397
				z"/>
		</g>
		<g>
			<path style="fill:#DE6767;" d="M366.223,271.202c0,0-4.878-11.286-6.435-15.782c0.79-3.142-7.907-13.716-9.172-13.643
				c-1.265,0.073,1.912,5.902,1.912,5.902l-5.136-1.535c0,0-5.707-5.05-6.69-4.344c-0.983,0.706,0.435,5.606,6.986,10.733
				l-5.14-3.002c0,0-2.751-3.72-3.663-2.945c-0.912,0.775,3.529,5.968,6.698,7.789c0,0-3.858-0.937-5.418-1.825
				c-1.338-0.761-1.658,2.476,5.376,3.936c0,0,2.352,3.415,6.01,4.157l1.534,14.668L366.223,271.202z"/>
			<polyline style="fill:none;stroke:#422424;stroke-width:0.5;stroke-miterlimit:10;" points="349.511,250.24 346.505,247.951 
				340.962,242.479 			"/>
			
				<line style="fill:none;stroke:#422424;stroke-width:0.5;stroke-miterlimit:10;" x1="350.726" y1="248.831" x2="347.174" y2="253.199"/>
			<path style="fill:none;stroke:#422424;stroke-width:0.5;stroke-miterlimit:10;" d="M349.53,253.656c0,0,4.781-1.266,6.328,4.172"
				/>
			<g>
				<path style="fill:#422424;" d="M424.634,214.889c-6.982,0.556-14.686-0.079-17.307,5.639
					c-2.621,5.719,3.812,12.708,1.589,16.917c-2.224,4.209-2.939,7.307-1.747,11.357c1.191,4.051-5.798,4.845-5.718,12.787h47.336
					c0,0,3.813-4.638,1.986-9.626c-1.827-4.988-3.971-4.829-3.892-10.151c0.08-5.321-1.112-8.288-4.05-10.974
					c-2.939-2.686-2.621-5.307-2.859-9.04C439.732,218.066,435.985,210.6,424.634,214.889z"/>
				<path style="fill:none;stroke:#6E3C3C;stroke-width:0.5;stroke-miterlimit:10;" d="M442.272,240.557
					c-1.055,7.262,6.258,13.872,2.742,18.513"/>
				<path style="fill:none;stroke:#6E3C3C;stroke-width:0.5;stroke-miterlimit:10;" d="M438.107,240.557
					c-1.055,7.262,6.258,13.872,2.742,18.513"/>
				<path style="fill:none;stroke:#6E3C3C;stroke-width:0.5;stroke-miterlimit:10;" d="M433.941,240.557
					c-1.055,7.262,6.258,13.872,2.742,18.513"/>
				<path style="fill:none;stroke:#6E3C3C;stroke-width:0.5;stroke-miterlimit:10;" d="M411.035,240.557
					c-1.125,2.18-1.995,6.067-0.703,8.789c1.292,2.722-0.291,6.914-1.828,8.541"/>
				<path style="fill:none;stroke:#6E3C3C;stroke-width:0.5;stroke-miterlimit:10;" d="M414.214,240.557
					c-1.125,2.18-1.995,6.067-0.703,8.789c1.292,2.722-0.291,6.914-1.828,8.541"/>
			</g>
			<path style="fill:#415780;" d="M402.876,255.395l5.57-2.874l-1.823,17.724l-12.656,41.629h-32.203l-11.953-37.969l16.453-4.641
				l10.125,24.047l15.615-27.477C394.539,261.374,398.317,257.747,402.876,255.395z"/>
			<path style="fill:#415780;" d="M437.561,314.405c0,0,9,6.328,9,20.25c0,13.922-10.828,28.078-58.359,18.187l-31.5-25.922
				l19.529-5.766l20.69-6.75H437.561z"/>
			<path style="fill:#DE6767;" d="M359.374,328.327c-9.422,0-12.797,16.148-16.594,30.293
				c-3.797,14.145-14.344,57.457-14.344,57.457s-10.688,22.324-7.172,22.324c3.516,0,17.739-11.746,18.7-14.064
				c0.8-1.931-1.122-6.994-1.122-6.994l30.234-63.141C369.077,354.202,376.108,328.327,359.374,328.327z"/>
			<path style="fill:#1B2536;" d="M326.223,420.9c3.725,1.055,6.151,3.608,6.151,3.608l7.059-5.378
				c0.487,1.65,1.024,4.019,0.532,5.207c-0.961,2.318-15.184,14.064-18.7,14.064C318.803,438.401,323.302,427.463,326.223,420.9z"/>
			<path style="fill:#943232;" d="M364.865,329.586l5.641,11.834c0.298,6.417-1.429,12.783-1.429,12.783l-9.941,20.76v0
				C350.707,336.343,364.865,329.586,364.865,329.586z"/>
			<path style="fill:#DE6767;" d="M369.979,328.327c-13.278,0-10.325,17.719-1.747,36.281c8.578,18.563,25.172,50.484,25.172,50.484
				s4.641,23.308,7.875,23.308s6.75-20.636,6.188-23.027c-0.563-2.391-6.469-7.453-6.469-7.453s-10.125-55.547-11.953-62.578
				C387.217,338.312,382.436,328.327,369.979,328.327z"/>
			<path style="fill:#1B2536;" d="M402.358,420.999l1.527-10.384c1.587,1.592,3.293,3.528,3.582,4.759
				c0.563,2.391-2.953,23.027-6.188,23.027c-2.305,0-5.323-11.832-6.867-18.635C398.606,418.449,402.358,420.999,402.358,420.999z"
				/>
			<path style="fill:#415780;" d="M418.788,247.187l-13.65,7.042c-5.68,2.93-9.248,8.786-9.248,15.177l0,0
				c0,0-8.906,12.292,0,23.437l-7.406,24.094h17.437l2.268,3.934c1.439,2.496,4.101,4.034,6.982,4.034h35.601l-10.539-22.875
				l5.611-33.962c0.93-5.63-1.351-11.31-5.917-14.733l-8.201-6.148H418.788z"/>
			<path style="fill:#28364F;" d="M408.188,320.871l-2.268-3.934h-17.438l3.633-11.82c26.977-4.695,46.148-19.633,46.148-19.633
				l3.54,7.034l-1.572,9.512l10.539,22.875h-35.601C412.289,324.905,409.627,323.367,408.188,320.871z"/>
			
				<line style="fill:none;stroke:#1B2536;stroke-width:0.5;stroke-miterlimit:10;" x1="405.639" y1="291.589" x2="406.483" y2="311.874"/>
			<path style="fill:#DE6767;" d="M418.366,302.734l-16.734,3.023l-8.312-0.382c-2.509-0.115-4.961,0.779-6.807,2.483l-5.975,5.516
				h41.625L418.366,302.734z"/>
			<path style="fill:none;stroke:#1B2536;stroke-width:0.5;stroke-miterlimit:10;" d="M395.889,269.405L395.889,269.405
				c0,0-8.906,12.292,0,23.437l-3.293,10.713"/>
			<path style="fill:#415780;" d="M440.908,254.07l-5.402-4.05l-2.117,26.229l5.812,20.625l-22.969,4.031v12.469
				c0,0,25.594,0,31.594,0c7.5,0,18.711-5.207,13.406-19.875c-3.535-9.775-7.792-20.202-10.65-27.023
				C448.518,261.552,445.18,257.273,440.908,254.07z"/>
			
				<line style="fill:none;stroke:#1B2536;stroke-width:0.5;stroke-miterlimit:10;" x1="448.295" y1="295.28" x2="416.233" y2="300.905"/>
			
				<line style="fill:none;stroke:#1B2536;stroke-width:0.5;stroke-miterlimit:10;" x1="432.639" y1="274.093" x2="439.201" y2="296.874"/>
			<path style="fill:none;stroke:#1B2536;stroke-width:0.5;stroke-miterlimit:10;" d="M445.858,288.249c0,0-4.219,2.109-5.555,6.68"
				/>
			<path style="fill:none;stroke:#FFFFFF;stroke-width:0.5;stroke-miterlimit:10;" d="M407.268,292.897
				c0,0.723,0.586,1.308,1.308,1.308s1.308-0.586,1.308-1.308s-0.586-1.308-1.308-1.308S407.268,292.175,407.268,292.897z"/>
			<path style="fill:none;stroke:#1B2536;stroke-width:0.5;stroke-miterlimit:10;" d="M433.615,249.709l1.009,3.285
				c0.802,2.614,0.15,5.457-1.712,7.459l-6.929,7.452l1.617,4.215c0.585,1.525,0.003,3.251-1.387,4.11l-20.574,12.722l-1.753-16.651
				c-0.133-1.261,0.447-2.492,1.505-3.192l4.935-3.267l-0.636-6.53c-0.193-1.983,0.395-3.964,1.638-5.521l2.885-3.611"/>
			<polygon style="fill:#FFFFFF;" points="431.727,249.713 405.639,288.952 417.256,249.709 			"/>
			<g>
				<path style="fill:#DE6767;" d="M426.217,218.734c0,0,0.938,8.766,6,11.578l-0.491,19.401c0,0-9.353,5.068-14.471-0.003
					l0.758-7.773c0,0-3.59-1.192-3.844-6.188c-0.154-3.043,0.935-4.147,1.093-7.87c0.126-2.973,1.713-5.703,4.324-7.128
					C421.302,219.814,423.512,218.992,426.217,218.734z"/>
				<path style="fill:#CC532B;" d="M423.87,234.568c0,0.952,0.772,1.725,1.725,1.725s1.724-0.772,1.724-1.725
					c0-0.952-0.772-1.724-1.724-1.724S423.87,233.615,423.87,234.568z"/>
				<g>
					<path style="fill:#DE6767;" d="M430.457,229.439c-1.613,1.874-1.576,4.55,0.082,5.977c1.658,1.427,4.31,1.064,5.922-0.81
						c1.613-1.874,1.576-4.55-0.083-5.977C434.721,227.203,432.07,227.565,430.457,229.439z"/>
					<path style="fill:none;stroke:#422424;stroke-width:0.5;stroke-miterlimit:10;" d="M435.686,231.156
						c-0.609-1.875-3.891-1.922-5.156,1.969"/>
					
						<line style="fill:none;stroke:#422424;stroke-width:0.5;stroke-miterlimit:10;" x1="433.764" y1="233.124" x2="433.764" y2="229.917"/>
				</g>
				<path style="fill:#1B2536;" d="M424.062,227.171c0.617-0.073,1.128,0.663,1.14,1.645c0.003,0.231-0.024,0.454-0.072,0.662
					l-0.751-0.289l0.466,0.989c-0.194,0.306-0.451,0.514-0.737,0.548c-0.617,0.073-1.128-0.663-1.14-1.644
					C422.956,228.1,423.445,227.244,424.062,227.171z"/>
				<path style="fill:#1B2536;" d="M417.301,227.975c0.617-0.073,1.128,0.663,1.14,1.645c0.003,0.231-0.024,0.454-0.072,0.662
					l-0.751-0.289l0.466,0.989c-0.194,0.306-0.451,0.514-0.737,0.548c-0.617,0.073-1.128-0.663-1.14-1.645
					C416.195,228.904,416.685,228.049,417.301,227.975z"/>
				<path style="fill:none;stroke:#422424;stroke-width:0.5;stroke-miterlimit:10;" d="M420.932,227.71v2.206l-1.022,2.22
					c-0.212,0.462,0.125,0.988,0.633,0.988h1.022"/>
				<path style="fill:none;stroke:#422424;stroke-linecap:round;stroke-linejoin:round;stroke-miterlimit:10;" d="M426.913,225.193
					c0,0-2.016-0.773-4.008,0.431"/>
				<path style="fill:none;stroke:#422424;stroke-linecap:round;stroke-linejoin:round;stroke-miterlimit:10;" d="M419.005,226.043
					c0,0-1.437-0.506-2.718,0.292"/>
				<path style="fill:#422424;" d="M424.634,233.968l-4.789,0.738c0,0-0.773,5.203,0.86,5.168
					C422.338,239.839,424.634,233.968,424.634,233.968z"/>
				<path style="fill:#943232;" d="M423.416,236.647c-0.797,1.554-1.846,3.209-2.711,3.227c-0.865,0.019-1.053-1.431-1.04-2.8
					c0.644-0.398,1.448-0.645,2.335-0.645C422.502,236.429,422.978,236.509,423.416,236.647z"/>
				<path style="fill:none;stroke:#422424;stroke-width:0.5;stroke-miterlimit:10;" d="M418.788,242.16
					c2.25,0.773,8.508,0.914,10.477-3.621"/>
			</g>
			
				<line style="fill:none;stroke:#1B2536;stroke-width:0.5;stroke-miterlimit:10;" x1="393.91" y1="332.405" x2="415.029" y2="341.968"/>
		</g>
		<g>
			<g>
				<polygon style="fill:#6E9296;" points="348.726,308.921 390.583,308.921 384.215,286.135 342.358,286.135 				"/>
				<path style="fill:none;stroke:#1B2536;stroke-width:0.5;stroke-miterlimit:10;" d="M347.25,291.062
					c0.26,0.932,1.227,1.688,2.159,1.688c0.932,0,1.476-0.755,1.216-1.688s-1.227-1.688-2.159-1.688
					C347.534,289.374,346.99,290.13,347.25,291.062z"/>
			</g>
			<polygon style="fill:#496163;" points="343.061,308.921 384.818,308.921 388.122,300.115 346.366,300.115 			"/>
		</g>
		<g>
			
				<rect x="166.304" y="308.921" transform="matrix(-1 -1.224647e-16 1.224647e-16 -1 627.341 623.1858)" style="fill:#D9956A;" width="294.733" height="5.344"/>
			
				<rect x="194.561" y="314.265" transform="matrix(-1 -1.224647e-16 1.224647e-16 -1 627.341 651.1789)" style="fill:#D9956A;" width="238.218" height="22.649"/>
			<g>
				<polygon style="fill:#28364F;" points="196.372,336.765 200.67,336.765 200.555,314.265 				"/>
				<polygon style="fill:#28364F;" points="430.969,336.765 426.671,336.765 426.786,314.265 				"/>
			</g>
			<g>
				<polygon style="fill:#D9956A;" points="442.807,438.401 452.371,438.401 436.235,313.374 426.671,313.374 				"/>
				<polygon style="fill:#D9956A;" points="184.534,438.401 174.97,438.401 191.106,313.374 200.67,313.374 				"/>
			</g>
			
				<line style="fill:none;stroke:#28364F;stroke-width:0.5;stroke-miterlimit:10;" x1="192.908" y1="314.265" x2="434.433" y2="314.265"/>
			
				<line style="fill:none;stroke:#28364F;stroke-width:0.5;stroke-miterlimit:10;" x1="199.923" y1="331.797" x2="427.418" y2="331.797"/>
			<g>
				
					<line style="fill:none;stroke:#28364F;stroke-width:0.5;stroke-miterlimit:10;" x1="198.006" y1="314.265" x2="182.057" y2="438.401"/>
				
					<line style="fill:none;stroke:#28364F;stroke-width:0.5;stroke-miterlimit:10;" x1="429.335" y1="314.265" x2="445.284" y2="438.401"/>
			</g>
		</g>
		<g>
			<path style="fill:none;stroke:#28364F;stroke-width:1.131;stroke-miterlimit:10;" d="M453.502,406.402h40.783l-2.173-21.039
				c-0.964-9.337-8.832-16.434-18.218-16.434h0c-9.387,0-17.254,7.096-18.218,16.434L453.502,406.402z"/>
			<path style="fill:#D65353;" d="M441.653,438.401h64.481c3.423,0,5.923-3.235,5.058-6.548l-8.963-34.339h-56.672l-8.963,34.339
				C435.73,435.166,438.23,438.401,441.653,438.401z"/>
			<path style="fill:#D68D8D;" d="M473.893,397.515h28.336c0,0-14.766,25.875-28.336,25.875c-13.57,0-28.336-25.875-28.336-25.875
				H473.893z"/>
			<path style="fill:none;stroke:#FFFFFF;stroke-width:1.131;stroke-miterlimit:10;" d="M470.401,416.478
				c0,1.645,1.334,2.979,2.979,2.979c1.645,0,2.979-1.334,2.979-2.979s-1.334-2.979-2.979-2.979
				C471.735,413.499,470.401,414.833,470.401,416.478z"/>
		</g>
		<g>
			<polygon style="fill:#626875;" points="245.786,308.921 298.333,308.921 309.991,268.702 257.444,268.702 			"/>
			<path style="fill:none;stroke:#FFFFFF;stroke-width:0.7349;stroke-miterlimit:10;" d="M271.768,288.812
				c-1.193,4.116,1.177,7.453,5.293,7.453c4.116,0,8.42-3.337,9.613-7.453c1.193-4.116-1.176-7.453-5.293-7.453
				C277.266,281.359,272.962,284.695,271.768,288.812z"/>
			
				<line style="fill:none;stroke:#1B2536;stroke-width:0.5;stroke-miterlimit:10;" x1="259.458" y1="270.952" x2="248.452" y2="308.921"/>
		</g>
		<g>
			<path style="fill:#4A75C9;" d="M291.766,101.937c0,17.949,14.551,32.499,32.499,32.499c17.949,0,32.499-14.55,32.499-32.499
				s-14.55-32.499-32.499-32.499C306.316,69.437,291.766,83.988,291.766,101.937z M303.542,101.937
				c0-11.445,9.278-20.723,20.723-20.723c11.445,0,20.723,9.278,20.723,20.723s-9.278,20.723-20.723,20.723
				C312.82,122.66,303.542,113.382,303.542,101.937z"/>
			<path style="fill:#DE6767;" d="M324.265,69.437v11.776c-10.216,0-18.685,7.399-20.391,17.127l-11.61-2.048
				C294.937,81.036,308.242,69.437,324.265,69.437z"/>
			<path style="fill:#6E9296;" d="M303.542,101.937c0,6.358,2.87,12.041,7.378,15.843l-7.589,9.009
				c-7.07-5.962-11.565-14.88-11.565-24.852c0-1.926,0.177-3.81,0.498-5.644l11.61,2.048
				C303.669,99.511,303.542,100.708,303.542,101.937z"/>
			<path style="fill:#D9956A;" d="M344.988,101.937c0-2.193-0.347-4.304-0.978-6.289l11.226-3.575
				c0.99,3.112,1.529,6.424,1.529,9.864c0,3.712-0.631,7.274-1.777,10.597l-11.147-3.845
				C344.572,106.57,344.988,104.304,344.988,101.937z"/>
			<path style="fill:#28364F;" d="M324.265,134.436c-7.977,0-15.278-2.879-20.934-7.648l7.589-9.009
				c3.606,3.041,8.258,4.881,13.345,4.881c9.078,0,16.772-5.846,19.576-13.971l11.147,3.845
				C350.592,125.277,338.502,134.436,324.265,134.436z"/>
		</g>
		<g>
			<path style="fill:#D9956A;" d="M169.07,201.992h85.855c13.624,0,24.669-11.045,24.669-24.669v-37.471
				c0-13.624-11.045-24.669-24.669-24.669H169.07c-13.624,0-24.669,11.045-24.669,24.669v37.471
				C144.401,190.948,155.446,201.992,169.07,201.992z"/>
			<g>
				<path style="fill:none;stroke:#FFFFFF;stroke-width:0.7349;stroke-miterlimit:10;" d="M221.977,135.074h37.835
					c0.854,0,1.546-0.692,1.546-1.546l0,0c0-0.854-0.692-1.546-1.546-1.546h-37.835c-0.854,0-1.546,0.692-1.546,1.546l0,0
					C220.431,134.382,221.123,135.074,221.977,135.074z"/>
				<path style="fill:none;stroke:#FFFFFF;stroke-width:0.7349;stroke-miterlimit:10;" d="M221.977,142.315h37.835
					c0.854,0,1.546-0.692,1.546-1.546l0,0c0-0.854-0.692-1.546-1.546-1.546h-37.835c-0.854,0-1.546,0.692-1.546,1.546l0,0
					C220.431,141.623,221.123,142.315,221.977,142.315z"/>
				<path style="fill:none;stroke:#FFFFFF;stroke-width:0.7349;stroke-miterlimit:10;" d="M221.977,149.556h37.835
					c0.854,0,1.546-0.692,1.546-1.546v0c0-0.854-0.692-1.546-1.546-1.546h-37.835c-0.854,0-1.546,0.692-1.546,1.546v0
					C220.431,148.864,221.123,149.556,221.977,149.556z"/>
				<path style="fill:none;stroke:#FFFFFF;stroke-width:0.7349;stroke-miterlimit:10;" d="M245.819,156.798h13.993
					c0.854,0,1.546-0.692,1.546-1.546l0,0c0-0.854-0.692-1.546-1.546-1.546h-13.993c-0.854,0-1.546,0.692-1.546,1.546l0,0
					C244.273,156.105,244.965,156.798,245.819,156.798z"/>
			</g>
			<g>
				<defs>
					<path id="SVGID_1_" d="M144.401,177.324c0,13.624,11.045,24.669,24.669,24.669h85.855c3.9,0,7.587-0.909,10.866-2.52v-99.379
						h-121.39V177.324z"/>
				</defs>
				<clipPath id="SVGID_00000108285960484409990620000017040939700821703597_">
					<use xlink:href="#SVGID_1_"  style="overflow:visible;"/>
				</clipPath>
				<g style="clip-path:url(#SVGID_00000108285960484409990620000017040939700821703597_);">
					<g>
						<path style="fill:#DE6767;" d="M192.228,114.146l-0.942-9.482c3.557-0.246,11.924,0.176,15.967,8.93
							c4.043,8.754,2.112,17.058,1.758,22.535c-0.598,9.246,2.528,21.48,2.987,23.344l-24.08-12.797L192.228,114.146z"/>
						<path style="fill:#6E4C2E;" d="M205.46,150.578c4.148,1.828,7.617,3.305,9.961,8.895c2.344,5.59,17.063,44.402,17.063,44.402
							h-27.938L205.46,150.578z"/>
						<path style="fill:#6E4C2E;" d="M192.228,114.146l-9.265,11.777l-4.475,17.98h15.153l0.628-4.946c0,0,8.087,1.492,7.773-8.951
							l2.041-6.36C204.084,123.646,196.86,121.683,192.228,114.146z"/>
						<path style="fill:none;stroke:#422424;stroke-width:0.5;stroke-miterlimit:10;" d="M192.874,138.695
							c0,0-5.625-1.828-7.031-5.695"/>
						<path style="fill:#E8D1C5;" d="M193.864,142.147c0,0-6.951,1.085-14.939,0l-4.707,3.978c0,0-10.647,2.009-17.297,7.406
							c-5.449,4.423-5.847,9.99-5.184,18.606c0.663,8.616,4.639,35.391,4.639,35.391h60.179l-6.373-26.811
							c0,0,6.903-9.641-1.978-20.51l-2.744-9.63l-8.227-4.289C197.233,146.289,197.684,142.379,193.864,142.147z"/>
						<path style="fill:none;stroke:#28364F;stroke-width:0.7336;stroke-miterlimit:10;" d="M196.53,147.484
							c0,0-6.539,4.008-15.68,1.266"/>
						
							<line style="fill:none;stroke:#28364F;stroke-width:0.7336;stroke-miterlimit:10;" x1="177.824" y1="176.593" x2="187.249" y2="182.359"/>
						<path style="fill:#6E4C2E;" d="M156.376,207.528c0,0-3.977-26.776-4.639-35.391c-0.152-1.98-0.244-3.792-0.235-5.473
							c-0.006-0.428,0.008-0.834,0.028-1.234c0.005-0.129,0.007-0.261,0.014-0.388c0.542-7.878,5.916-10.166,10.73-8.962
							c5.148,1.287,7.721,8.236,9.909,21.749c1.507,9.305,4.284,24.357,5.277,29.7H156.376z"/>
						<path style="fill:#1B2536;" d="M198.979,126.988l-0.851-0.426c0.179-0.526,0.663-0.91,1.25-0.91
							c0.738,0,1.336,0.598,1.336,1.336s-0.598,1.336-1.336,1.336c-0.673,0-1.207-0.506-1.299-1.154L198.979,126.988z"/>
						<path style="fill:#1B2536;" d="M192.186,124.14l-0.851-0.426c0.179-0.526,0.663-0.91,1.25-0.91
							c0.738,0,1.336,0.598,1.336,1.336c0,0.738-0.598,1.336-1.336,1.336c-0.673,0-1.207-0.506-1.299-1.154L192.186,124.14z"/>
						<path style="fill:none;stroke:#422424;stroke-width:0.5;stroke-miterlimit:10;" d="M196.952,125.16l-0.809,1.195
							c0,0,0.559,2.571,0.211,3.059c-0.703,0.984-2.883-0.773-2.883-0.773"/>
						<path style="fill:none;stroke:#422424;stroke-width:0.5;stroke-miterlimit:10;" d="M196.354,131.628
							c0,0-3.656,0.668-6.187-3.48"/>
						<path style="fill:none;stroke:#DE6767;stroke-miterlimit:10;" d="M195.511,121.89c0,0-1.09-1.863-3.621-2.285"/>
						<path style="fill:none;stroke:#DE6767;stroke-miterlimit:10;" d="M198.886,123.753c0,0,2.296-0.054,3.269,1.406"/>
						<path style="fill:#DE6767;" d="M191.286,104.664c-11.151,0.844-14.654,11.602-16.131,20.18
							c-1.477,8.578-4.008,11.531-8.508,17.297c-4.5,5.766-4.5,13.148,2.953,18.844c7.453,5.695,15.539,1.336,15.891-5.555
							c0.352-6.891-3.586-14.273-3.656-18.492c-0.07-4.219,2.25-10.547,2.25-10.547c5.203-3.656,8.143-12.245,8.143-12.245
							L191.286,104.664z"/>
						<g>
							<path style="fill:#6E4C2E;" d="M179.031,126.427c1.315,2.277,3.912,3.238,5.802,2.147c1.89-1.091,2.357-3.822,1.042-6.099
								c-1.315-2.277-3.912-3.238-5.803-2.147C178.183,121.42,177.717,124.15,179.031,126.427z"/>
							<path style="fill:none;stroke:#422424;stroke-width:0.5;stroke-miterlimit:10;" d="M184.893,126.32
								c0,0-1.16-4.432-3.797-4.148"/>
							<path style="fill:none;stroke:#422424;stroke-width:0.5;stroke-miterlimit:10;" d="M181.378,125.476
								c0.281-0.703,1.55-2.672,1.55-2.672"/>
						</g>
						
							<line style="fill:none;stroke:#FFFFFF;stroke-width:0.7336;stroke-miterlimit:10;" x1="192.061" y1="112.464" x2="191.286" y2="106.281"/>
					</g>
					<g>
						<polygon style="fill:#28364F;" points="220.838,171.407 262.892,171.407 251.585,209.163 209.532,209.163 207.453,209.163 
							218.76,171.407 						"/>
						<path style="fill:none;stroke:#FFFFFF;stroke-width:0.7349;stroke-miterlimit:10;" d="M230.603,189.034
							c-0.99,3.304,0.887,5.983,4.191,5.983s6.785-2.679,7.775-5.983c0.99-3.304-0.887-5.983-4.191-5.983
							C235.074,183.051,231.593,185.73,230.603,189.034z"/>
						
							<line style="fill:none;stroke:#1B2536;stroke-width:0.5;stroke-miterlimit:10;" x1="220.431" y1="172.766" x2="209.937" y2="207.808"/>
					</g>
				</g>
			</g>
		</g>
		<g>
			<path style="fill:#6E9296;" d="M348.934,192.079h94.006c13.624,0,24.669-11.045,24.669-24.669v-37.471
				c0-13.624-11.045-24.669-24.669-24.669h-94.006c-13.624,0-24.669,11.045-24.669,24.669v37.471
				C324.265,181.034,335.309,192.079,348.934,192.079z"/>
			<g>
				<path style="fill:none;stroke:#FFFFFF;stroke-width:0.7349;stroke-miterlimit:10;" d="M340.788,128.781h32.249
					c0.841,0,1.524-0.682,1.524-1.524l0,0c0-0.841-0.682-1.524-1.524-1.524h-32.249c-0.842,0-1.524,0.682-1.524,1.524l0,0
					C339.264,128.099,339.946,128.781,340.788,128.781z"/>
				<path style="fill:none;stroke:#FFFFFF;stroke-width:0.7349;stroke-miterlimit:10;" d="M340.788,137.242h32.249
					c0.841,0,1.524-0.682,1.524-1.524l0,0c0-0.842-0.682-1.524-1.524-1.524h-32.249c-0.842,0-1.524,0.682-1.524,1.524l0,0
					C339.264,136.56,339.946,137.242,340.788,137.242z"/>
				<path style="fill:none;stroke:#FFFFFF;stroke-width:0.7349;stroke-miterlimit:10;" d="M340.788,145.703h25.195
					c0.842,0,1.524-0.682,1.524-1.524l0,0c0-0.841-0.682-1.524-1.524-1.524h-25.195c-0.842,0-1.524,0.682-1.524,1.524l0,0
					C339.264,145.021,339.946,145.703,340.788,145.703z"/>
				<path style="fill:none;stroke:#FFFFFF;stroke-width:0.7349;stroke-miterlimit:10;" d="M340.788,154.164h19.429
					c0.842,0,1.524-0.682,1.524-1.524l0,0c0-0.841-0.682-1.524-1.524-1.524h-19.429c-0.842,0-1.524,0.682-1.524,1.524l0,0
					C339.264,153.482,339.946,154.164,340.788,154.164z"/>
			</g>
			<g>
				<defs>
					<path id="SVGID_00000024710112635498470710000012349816622474516367_" d="M366.217,93.504v98.574h76.723
						c13.624,0,24.669-11.045,24.669-24.669V93.504H366.217z"/>
				</defs>
				<clipPath id="SVGID_00000028325247878993030880000010975787333120230579_">
					<use xlink:href="#SVGID_00000024710112635498470710000012349816622474516367_"  style="overflow:visible;"/>
				</clipPath>
				<g style="clip-path:url(#SVGID_00000028325247878993030880000010975787333120230579_);">
					<path style="fill:#496163;" d="M429.475,96.297c0,0-2.18-3.938-5.203-2.461c-3.023,1.477-4.992,4.5-4.992,4.5
						s-10.617,2.109-7.664,7.523c2.953,5.414,7.242,7.594,7.242,7.594l19.836,7.593l7.662-11.551
						c1.659-2.501,0.948-5.877-1.579-7.496l-4.402-2.82l-3.666-3.705c-1.617-1.634-4.219-1.744-5.969-0.254L429.475,96.297z"/>
					<path style="fill:#D9956A;" d="M394.342,131.828l5.156-5.531l5.194-8.204c0.467-0.737,1.112-1.345,1.877-1.766l6.147-3.389
						l3.31,8.236c0,0-0.175,3.627-2.357,6.571c-3.479,4.693-6.765,4.177-6.765,4.177l-3.375,3.797L394.342,131.828z"/>
					<polygon style="fill:#28364F;" points="397.202,128.76 404.154,135.205 395.229,130.877 					"/>
					<polygon style="fill:#D4B5A5;" points="386.303,132.789 390.803,126.671 404.154,135.205 401.241,141.602 					"/>
					<path style="fill:#415780;" d="M426.03,131.734l-24.469,9l-17.016-10.089c0,0-8.975,16.429-13.219,25.276
						c-5.82,12.134,4.475,34.329,27.352,17.438l2.039,22.359h73.828v-46.125l-36.75-18.948L426.03,131.734z"/>
					<path style="fill:#28364F;" d="M414.452,158.593c-0.532-3.459-5.252-11.2,1.463-23.139l10.115-3.72l11.766-1.089l7.288,3.758
						c1.06,2.717,2.967,8.647,1.712,13.597c-1.688,6.656-8.625,9.094-8.906,14.625c-0.281,5.531,1.031,12.469-3.281,18.844
						c-4.313,6.375-9,14.25-9,14.25h-12.375c0,0-2.438-15.575-3-21.522C409.67,168.249,415.014,162.249,414.452,158.593z"/>
					
						<line style="fill:none;stroke:#1B2536;stroke-width:0.5;stroke-miterlimit:10;" x1="401.561" y1="140.734" x2="392.842" y2="164.375"/>
					
						<line style="fill:none;stroke:#1B2536;stroke-width:0.5;stroke-miterlimit:10;" x1="398.678" y1="173.359" x2="397.202" y2="159.718"/>
					<polygon style="fill:#D4B5A5;" points="437.795,130.645 441.88,132.751 422.312,195.718 416.709,195.718 419.333,134.197 
						426.03,131.734 					"/>
					
						<line style="fill:none;stroke:#1B2536;stroke-width:0.5;stroke-miterlimit:10;" x1="453.918" y1="159.718" x2="464.213" y2="195.718"/>
					<polygon style="fill:#FFFFFF;" points="427.441,144.41 429.97,148.93 427.717,153.531 427.624,178.625 422.312,195.718 
						416.709,195.718 417.432,178.772 425.186,153.531 423.911,148.178 					"/>
					<g>
						<path style="fill:#28364F;" d="M405.788,124.711l5.855,4.049c0.822,0.569,1.95,0.363,2.518-0.459l7.85-11.351
							c0.569-0.822,0.363-1.95-0.459-2.518l-5.855-4.049c-0.822-0.569-1.95-0.363-2.518,0.459l-7.85,11.351
							C404.76,123.015,404.966,124.142,405.788,124.711z"/>
						<path style="fill:#FFFFFF;" d="M407.096,123.701l5.029,3.478c0.41,0.284,0.972,0.181,1.256-0.229l7.091-10.254
							c0.284-0.41,0.181-0.972-0.229-1.256l-5.03-3.478c-0.41-0.284-0.972-0.181-1.256,0.229l-7.091,10.254
							C406.583,122.855,406.686,123.418,407.096,123.701z"/>
					</g>
					<path style="fill:#D9956A;" d="M403.108,124.328c0,0,8.766-0.375,8.719-1.969c-0.047-1.594-6.375-1.313-6.375-1.313
						s6.498-0.738,7.271-2.179c0.773-1.441-6.539-0.258-6.539-0.258s7.945-2.906,8.156-4.277c0.211-1.371-6.293,1.56-6.293,1.56"/>
					<polyline style="fill:none;stroke:#28364F;stroke-width:0.8447;stroke-miterlimit:10;" points="432.967,153.859 
						427.441,144.41 420.368,152.218 					"/>
					<path style="fill:#D9956A;" d="M438.123,111.484c0,0-6.469-4.43-7.664-10.477c0,0-5.906-0.773-12.094,5.906L417.873,115
						c0,0-4.992,9.984,5.484,14.906l-0.211,5.414l4.57,7.875l11.672-10.476L438.123,111.484z"/>
					<path style="fill:none;stroke:#422424;stroke-width:0.5;stroke-miterlimit:10;" d="M424.389,130.234
						c2.437,1.078,9.867,0.282,12.047-5.391"/>
					<path style="fill:#D9956A;" d="M437.259,114.821c-1.812,2.621-1.53,5.958,0.632,7.452c2.161,1.494,5.383,0.581,7.195-2.041
						c1.812-2.621,1.53-5.958-0.632-7.452C442.293,111.286,439.071,112.2,437.259,114.821z"/>
					<path style="fill:none;stroke:#422424;stroke-width:0.5;stroke-miterlimit:10;" d="M444.405,116.218
						c-0.891-1.922-5.063-2.297-6.609,2.109"/>
					
						<line style="fill:none;stroke:#422424;stroke-width:0.5;stroke-miterlimit:10;" x1="442.014" y1="118.609" x2="441.172" y2="114.932"/>
					<path style="fill:#1B2536;" d="M430.107,111.355c0.777,0,1.407,1.016,1.407,2.268c0,0.375-0.062,0.724-0.162,1.035
						l-0.963-0.327l0.68,0.94c-0.252,0.382-0.589,0.621-0.962,0.621c-0.777,0-1.407-1.016-1.407-2.268
						C428.7,112.371,429.33,111.355,430.107,111.355z"/>
					<path style="fill:#1B2536;" d="M421.775,111.355c0.777,0,1.407,1.016,1.407,2.268c0,0.375-0.062,0.724-0.162,1.035
						l-0.963-0.327l0.68,0.94c-0.252,0.382-0.589,0.621-0.962,0.621c-0.777,0-1.407-1.016-1.407-2.268
						C420.368,112.371,420.998,111.355,421.775,111.355z"/>
					<path style="fill:none;stroke:#422424;stroke-width:0.5;stroke-miterlimit:10;" d="M425.678,112.328l-0.316,3.564l-0.801,1.821
						c-0.186,0.422,0.124,0.896,0.585,0.896h2.079"/>
					<path style="fill:none;stroke:#422424;stroke-width:0.5;stroke-miterlimit:10;" d="M423.663,120.906
						c0,0,3.563,1.125,7.219-1.242"/>
					<path style="fill:none;stroke:#496163;stroke-linecap:round;stroke-linejoin:round;stroke-miterlimit:10;" d="M433.342,108.953
						c0,0-3.111-0.844-5.305,0"/>
					<path style="fill:none;stroke:#496163;stroke-linecap:round;stroke-linejoin:round;stroke-miterlimit:10;" d="M424.014,109.14
						c0,0-1.359-0.938-4.078,0"/>
				</g>
			</g>
		</g>
		<g>
			<circle style="fill:#4A75C9;" cx="487.76" cy="227.166" r="26.746"/>
			<path style="fill:#BEDCE0;" d="M496.079,218.847c6.489,6.489,7.92,15.813,3.727,21.929c-0.652,0.952-1.965,1.099-2.507,0.262
				l-3.105-4.792c-0.487-0.752-0.305-1.835,0.433-2.574l0,0c1.348-1.348,1.991-3.233,1.573-4.869c-0.577-2.262-1.82-4.498-3.7-6.378
				c-1.88-1.88-4.115-3.123-6.378-3.7c-1.635-0.417-3.521,0.226-4.869,1.574l0,0c-0.738,0.738-1.821,0.921-2.573,0.433l-4.792-3.105
				c-0.837-0.542-0.69-1.855,0.262-2.507C480.267,210.927,489.59,212.358,496.079,218.847z"/>
		</g>
		<g>
			<circle style="fill:#4A75C9;" cx="122.927" cy="223.702" r="26.746"/>
			<g>
				<path style="fill:#BEDCE0;" d="M109.447,232.516h13.511c1.137,0,2.058-0.922,2.058-2.058v-13.511
					c0-1.137-0.922-2.058-2.058-2.058h-13.511c-1.137,0-2.058,0.922-2.058,2.058v13.511
					C107.389,231.595,108.31,232.516,109.447,232.516z"/>
				<path style="fill:#BEDCE0;" d="M138.465,216.64v14.125c0,1.11-1.258,1.753-2.157,1.102l-8.74-6.32
					c-1.257-0.909-1.257-2.781,0-3.689l8.74-6.32C137.207,214.887,138.465,215.53,138.465,216.64z"/>
			</g>
			<path style="fill:#4A75C9;" d="M145.451,230.236l12.463,13.356c0.69,0.74-0.022,1.921-0.999,1.655l-18.45-5.022L145.451,230.236z
				"/>
		</g>
		
			<line style="fill:none;stroke:#28364F;stroke-width:1.2517;stroke-miterlimit:10;" x1="46.723" y1="438.401" x2="553.277" y2="438.401"/>
		<g>
			
				<ellipse transform="matrix(0.7071 -0.7071 0.7071 0.7071 -48.3744 274.6501)" style="fill:#4A75C9;" cx="307.345" cy="195.718" rx="41.554" ry="41.554"/>
			<g>
				<defs>
					
						<ellipse id="SVGID_00000160151316734026645960000010056333971986944422_" transform="matrix(0.7071 -0.7071 0.7071 0.7071 -48.3744 274.6501)" cx="307.345" cy="195.718" rx="41.554" ry="41.554"/>
				</defs>
				<clipPath id="SVGID_00000148651515654597839860000002123202123511329162_">
					<use xlink:href="#SVGID_00000160151316734026645960000010056333971986944422_"  style="overflow:visible;"/>
				</clipPath>
				<g style="clip-path:url(#SVGID_00000148651515654597839860000002123202123511329162_);">
					<path style="fill:#D68D8D;" d="M287.061,181.492l-13.607,18.448l13.167,7.709l4.617,7.848c1.544,2.626,5.313,2.706,6.968,0.148
						l11.758-18.171L287.061,181.492z"/>
					<g>
						<path style="fill:#DE6767;" d="M300.537,197.653l-3.209,3.495c-1.742,1.898-3.214,4.027-4.372,6.329l-2.643,5.252
							c-0.842,1.674-0.391,3.708,1.08,4.869l11.397,8.989c1.223,0.965,2.899,1.119,4.278,0.394l10.676-5.616l12.868-12.27
							l4.938-10.773l8.454-6.509l-14.14-16.235l-10.699,9.726l-5.985,0.474c-3.938,0.312-7.458,2.572-9.381,6.022L300.537,197.653z"
							/>
						
							<line style="fill:none;stroke:#422424;stroke-width:0.532;stroke-miterlimit:10;" x1="300.786" y1="206.352" x2="293.154" y2="218.987"/>
						
							<line style="fill:none;stroke:#422424;stroke-width:0.532;stroke-miterlimit:10;" x1="307.345" y1="210.742" x2="297.5" y2="222.414"/>
						
							<line style="fill:none;stroke:#422424;stroke-width:0.532;stroke-miterlimit:10;" x1="312.058" y1="216.014" x2="301.721" y2="225.744"/>
					</g>
					<polygon style="fill:#28364F;" points="289.517,183.206 281.143,204.442 273.454,199.94 287.061,181.492 					"/>
					<polygon style="fill:#28364F;" points="326.423,178.707 337.945,196.478 344.004,191.814 329.864,175.579 					"/>
					<path style="fill:#D68D8D;" d="M297.918,199.22l13.392,0.748l1.27,4.729c0.521,1.941,2.355,3.231,4.357,3.067l1.106-0.091
						l-1.811-10.755c-0.436-2.588-2.154-4.772-4.566-5.805c-3.752-1.607-9.75-3.644-15.956-3.586L297.918,199.22z"/>
					<g>
						<path style="fill:#D68D8D;" d="M331.977,210.455l-1.365,1.334c0,0,0.374,4.639-4.863,4.788c0,0-0.299,3.142-4.938,3.965
							l-2.245,2.076c-0.947,0.876-2.427,0.811-3.293-0.145l-3.243-3.577c-0.658-0.726-0.584-1.853,0.164-2.486l1.66-1.405
							c0,0,0.15-2.843,4.19-4.115c0,0,0.167-2.89,2.848-3.88c0.81-0.299,1.721-0.166,2.452,0.292l0.76,0.476l1.467-1.643
							c1.085-1.216,2.906-1.434,4.248-0.508l1.856,1.28C332.868,207.731,333.014,209.44,331.977,210.455z"/>
						
							<line style="fill:none;stroke:#422424;stroke-width:0.532;stroke-miterlimit:10;" x1="330.612" y1="211.789" x2="324.851" y2="208.273"/>
						
							<line style="fill:none;stroke:#422424;stroke-width:0.532;stroke-miterlimit:10;" x1="325.749" y1="216.577" x2="318.866" y2="211.415"/>
						
							<line style="fill:none;stroke:#422424;stroke-width:0.532;stroke-miterlimit:10;" x1="320.811" y1="220.542" x2="314.677" y2="215.605"/>
					</g>
					<polygon style="fill:#415780;" points="327.096,175.13 342.283,195.33 350.288,189.644 340.331,163.66 					"/>
					<polygon style="fill:#D4B5A5;" points="272.855,165.554 290.362,180.068 274.801,204.008 256.546,194.731 					"/>
					
						<line style="fill:none;stroke:#FFFFFF;stroke-width:0.782;stroke-miterlimit:10;" x1="284.188" y1="189.566" x2="271.06" y2="179.993"/>
					<path style="fill:none;stroke:#FFFFFF;stroke-width:0.782;stroke-miterlimit:10;" d="M282.133,184.631
						c0,0.868,0.703,1.571,1.571,1.571c0.867,0,1.571-0.703,1.571-1.571c0-0.868-0.703-1.571-1.571-1.571
						C282.836,183.06,282.133,183.764,282.133,184.631z"/>
					<circle style="fill:none;stroke:#FFFFFF;stroke-width:0.782;stroke-miterlimit:10;" cx="277.045" cy="179.993" r="1.571"/>
				</g>
			</g>
		</g>
	</g>
</g>
</svg>
